Coordinates
version=1
nRows=17
nColumns=24
inDegrees=yes

Units are S.I. units (second, meters, Newtons, ...)
Angles are in degrees.

endheader
time	pelvis_tilt	pelvis_list	pelvis_rotation	pelvis_tx	pelvis_ty	pelvis_tz	hip_flexion_r	hip_adduction_r	hip_rotation_r	knee_angle_r	ankle_angle_r	subtalar_angle_r	mtp_angle_r	hip_flexion_l	hip_adduction_l	hip_rotation_l	knee_angle_l	ankle_angle_l	subtalar_angle_l	mtp_angle_l	lumbar_extension	lumbar_bending	lumbar_rotation
      3.50500000	     -6.59152931	     12.46418390	     -2.91238408	     -2.26424530	     -0.02010575	     -0.28574712	     14.45555009	    -18.36849012	     -2.75205860	    -61.90428573	    -25.79260035	    -11.88409108	     20.78326267	     17.31339875	     15.51286830	     -6.93827823	    -13.03519482	      2.49455849	     -7.04804523	     -3.61743631	      2.52407348	    -13.35847554	      2.65934453
      3.51000000	     -6.52756487	     12.23026447	     -2.97372109	     -2.25787120	     -0.01892816	     -0.28635939	     15.29022272	    -17.99555788	     -2.55601168	    -62.40872433	    -24.43831566	    -11.84077419	     21.07086273	     16.60259840	     15.39448417	     -6.61358516	    -12.70756157	      2.74976061	     -7.19232325	     -3.98339536	      2.42367291	    -13.07019139	      2.50204477
      3.51500000	     -6.48118288	     12.01045508	     -3.05563531	     -2.25148549	     -0.01778634	     -0.28699355	     16.16020611	    -17.62863050	     -2.37771046	    -62.87331087	    -23.11590147	    -11.85248235	     20.87059461	     15.91317755	     15.30939069	     -6.04285050	    -12.43298442	      3.38833799	     -7.42920062	     -6.55141856	      2.35717869	    -12.78545817	      2.43341383
      3.52000000	     -6.40897074	     11.68369269	     -3.12999397	     -2.24509122	     -0.01659237	     -0.28748068	     16.93656680	    -17.10256208	     -2.20604587	    -63.20078261	    -21.98550168	    -11.87874430	     21.17635235	     15.20972399	     15.06278286	     -5.84966435	    -12.15177236	      3.68827548	     -7.40859522	     -6.65700367	      2.25824237	    -12.40696789	      2.28879082
      3.52500000	     -6.30883722	     11.48338008	     -3.23242103	     -2.23874868	     -0.01553529	     -0.28798493	     17.73298085	    -16.71986092	     -1.96810229	    -63.54608146	    -20.73095611	    -11.65344309	     21.45704281	     14.47611857	     14.95779241	     -5.56212575	    -11.83705748	      3.96373559	     -7.51960008	     -7.09703204	      2.13622804	    -12.16119442	      2.17120473
      3.53000000	     -6.20378995	     11.25555379	     -3.32222847	     -2.23237260	     -0.01445415	     -0.28850296	     18.48748449	    -16.29935687	     -1.77062715	    -63.80371133	    -19.50677215	    -11.43543022	     21.58619573	     13.71459969	     14.83149145	     -5.20452324	    -11.50144316	      4.29874275	     -7.65488372	     -8.02801724	      2.01430254	    -11.88529396	      2.06687610
      3.53500000	     -6.09155132	     10.99613591	     -3.41170706	     -2.22601271	     -0.01329513	     -0.28899010	     19.21353361	    -15.83277464	     -1.66183330	    -63.97827920	    -18.37622236	    -11.47732128	     20.99243474	     12.94200235	     14.67879856	     -4.70019383	    -11.23910900	      5.30484586	     -7.61177306	    -12.06021179	      1.88345969	    -11.57711071	      1.96056311
      3.54000000	     -6.06316195	     10.69020604	     -3.47825295	     -2.21978911	     -0.01230510	     -0.28940617	     20.00856410	    -15.28589415	     -1.52880183	    -64.06877210	    -17.39479089	    -11.48957509	     21.26726043	     12.27895311	     14.43054763	     -4.52686603	    -10.91191839	      5.54436756	     -7.56127604	    -12.08998049	      1.81494868	    -11.23551026	      1.85024606
      3.54500000	     -5.94134556	     10.48777494	     -3.55672936	     -2.21349811	     -0.01129832	     -0.28987493	     20.68994370	    -14.87484983	     -1.37051964	    -64.10610797	    -16.21345499	    -11.22106949	     21.58998914	     11.47746436	     14.30424988	     -4.42354056	    -10.49071585	      5.74062031	     -7.47463936	    -12.28064339	      1.66714555	    -10.99536553	      1.74384210
      3.55000000	     -5.82339956	     10.23814047	     -3.63796098	     -2.20726367	     -0.01027775	     -0.29030757	     21.34686150	    -14.39855323	     -1.25090578	    -64.04632095	    -15.11996236	    -11.05777225	     21.83757970	     10.66284510	     14.12137759	     -4.31137672	    -10.03851656	      5.94472105	     -7.37334854	    -12.51317842	      1.51412429	    -10.71183712	      1.64729157
      3.55500000	     -5.71097994	      9.98423987	     -3.70995335	     -2.20106731	     -0.00928480	     -0.29073950	     21.98431800	    -13.91646120	     -1.15650157	    -63.90547696	    -14.02720169	    -10.88861494	     22.06588341	      9.84166243	     13.92972523	     -4.24123654	     -9.55618876	      6.15176956	     -7.21031719	    -12.73347407	      1.35889612	    -10.42450064	      1.53977260
      3.56000000	     -5.60344451	      9.72163891	     -3.77691972	     -2.19491898	     -0.00832522	     -0.29117504	     22.60229069	    -13.42510352	     -1.08434068	    -63.68509987	    -12.92171595	    -10.69983865	     22.28758929	      9.01709744	     13.72489917	     -4.20945145	     -9.04948645	      6.35006987	     -6.99618273	    -12.91507512	      1.20143744	    -10.13063101	      1.43363918
      3.56500000	     -5.50081840	      9.45231619	     -3.84097041	     -2.18878717	     -0.00740462	     -0.29162139	     23.19891186	    -12.93152665	     -1.03722969	    -63.38254981	    -11.82254930	    -10.49169076	     22.49333333	      8.18426124	     13.51155414	     -4.21544893	     -8.51097662	      6.54388692	     -6.74442736	    -13.05592262	      1.04674983	     -9.82662347	      1.31696727
      3.57000000	     -5.43414755	      9.16492519	     -3.88910236	     -2.18276874	     -0.00654435	     -0.29202515	     23.80615575	    -12.40946039	     -1.01327201	    -62.99486348	    -10.72790391	    -10.30651047	     22.69455208	      7.40427097	     13.26908812	     -4.21170200	     -7.98958411	      6.70208746	     -6.47963268	    -13.12643120	      0.90719053	     -9.51306531	      1.22049738
      3.57500000	     -5.34519052	      8.88178612	     -3.94118235	     -2.17672594	     -0.00572121	     -0.29244093	     24.36248405	    -11.91062743	     -1.02197356	    -62.52925919	     -9.63661420	    -10.06674149	     22.86711758	      6.58249105	     13.03438449	     -4.25375185	     -7.43045574	      6.86739331	     -6.18108200	    -13.16161161	      0.75151003	     -9.20263019	      1.10205601
      3.58000000	     -5.27323152	      8.58711122	     -3.97961906	     -2.17071857	     -0.00494696	     -0.29288878	     24.90447652	    -11.40509102	     -1.05439086	    -61.97666336	     -8.59499808	     -9.84173494	     22.98162845	      5.77961831	     12.78906761	     -4.30067714	     -6.86630111	      7.00783077	     -5.88071643	    -13.16181810	      0.60495625	     -8.87123837	      0.97647781
      3.58500000	     -5.22633820	      8.28516360	     -4.00799253	     -2.16477031	     -0.00425165	     -0.29330323	     25.44694889	    -10.89300684	     -1.11381326	    -61.34639122	     -7.59362545	     -9.63963801	     23.04291646	      5.01858493	     12.53103917	     -4.32972934	     -6.32465106	      7.13165558	     -5.60367481	    -13.12749524	      0.47199297	     -8.53908896	      0.85281809
